<svg width="16" height="26" viewBox="0 0 16 26" fill="none" xmlns="http://www.w3.org/2000/svg">
<path d="M14.4989 0.00540974L11.1273 0C7.33947 0 4.89158 2.51147 4.89158 6.39863V9.34883H1.50161C1.20867 9.34883 0.97146 9.58632 0.97146 9.87926V14.1538C0.97146 14.4467 1.20895 14.6839 1.50161 14.6839H4.89158V25.4698C4.89158 25.7628 5.1288 26 5.42173 26H9.84469C10.1376 26 10.3748 25.7625 10.3748 25.4698V14.6839H14.3385C14.6314 14.6839 14.8687 14.4467 14.8687 14.1538L14.8703 9.87926C14.8703 9.73861 14.8143 9.6039 14.715 9.50436C14.6158 9.40483 14.4805 9.34883 14.3399 9.34883H10.3748V6.84791C10.3748 5.64587 10.6613 5.03565 12.2271 5.03565L14.4984 5.03484C14.791 5.03484 15.0282 4.79735 15.0282 4.50469V0.535564C15.0282 0.243168 14.7913 0.00595071 14.4989 0.00540974Z" fill="#0A2756"/>
</svg>
